<?xml version="1.0" encoding="UTF-8"?>
<svg width="10px" height="20px" viewBox="0 0 10 20" version="1.1" xmlns="http://www.w3.org/2000/svg" xmlns:xlink="http://www.w3.org/1999/xlink">
    <!-- Generator: Sketch 44 (41411) - http://www.bohemiancoding.com/sketch -->
    <title>facebook</title>
    <desc>Created with Sketch.</desc>
    <defs></defs>
    <g id="Page-1" stroke="none" stroke-width="1" fill="none" fill-rule="evenodd">
        <g id="01-HOMEPAGE" transform="translate(-745.000000, -3757.000000)" fill-rule="nonzero" fill="#979797">
            <g id="FOOTER" transform="translate(0.000000, 3737.000000)">
                <g id="up" transform="translate(100.000000, 20.000000)">
                    <g id="SOCIAL-NETWORK" transform="translate(541.000000, 0.000000)">
                        <g id="facebook" transform="translate(104.000000, 0.000000)">
                            <path d="M9.45075472,0.00412371134 L7.09886792,0 C4.45660377,0 2.7490566,1.91443299 2.7490566,4.87752577 L2.7490566,7.12639175 L0.384339623,7.12639175 C0.18,7.12639175 0.0145283019,7.30742268 0.0145283019,7.53072165 L0.0145283019,10.7890722 C0.0145283019,11.0123711 0.180188679,11.1931959 0.384339623,11.1931959 L2.7490566,11.1931959 L2.7490566,19.4150515 C2.7490566,19.6383505 2.9145283,19.8191753 3.11886792,19.8191753 L6.20415094,19.8191753 C6.40849057,19.8191753 6.57396226,19.6381443 6.57396226,19.4150515 L6.57396226,11.1931959 L9.33886792,11.1931959 C9.54320755,11.1931959 9.70867925,11.0123711 9.70867925,10.7890722 L9.70981132,7.53072165 C9.70981132,7.42350515 9.67075472,7.32082474 9.60150943,7.24494845 C9.53226415,7.16907216 9.43792453,7.12639175 9.33981132,7.12639175 L6.57396226,7.12639175 L6.57396226,5.22 C6.57396226,4.30371134 6.77377358,3.8385567 7.86603774,3.8385567 L9.45037736,3.83793814 C9.6545283,3.83793814 9.82,3.65690722 9.82,3.43381443 L9.82,0.408247423 C9.82,0.185360825 9.65471698,0.00453608247 9.45075472,0.00412371134 Z" id="Shape"></path>
                        </g>
                    </g>
                </g>
            </g>
        </g>
    </g>
</svg>