<?xml version="1.0" encoding="UTF-8"?>
<svg width="30px" height="28px" viewBox="0 0 30 28" version="1.1" xmlns="http://www.w3.org/2000/svg" xmlns:xlink="http://www.w3.org/1999/xlink">
    <!-- Generator: Sketch 44 (41411) - http://www.bohemiancoding.com/sketch -->
    <title>home-icon-silhouette</title>
    <desc>Created with Sketch.</desc>
    <defs></defs>
    <g id="Page-1" stroke="none" stroke-width="1" fill="none" fill-rule="evenodd">
        <g id="06-CONTACT" transform="translate(-848.000000, -852.000000)" fill-rule="nonzero" fill="#3BC0D1">
            <g id="CONTACT" transform="translate(206.000000, 794.000000)">
                <g id="content" transform="translate(642.000000, 58.000000)">
                    <g id="adresse">
                        <g id="home-icon-silhouette">
                            <path d="M29.4964426,12.5753268 L24.9497941,8.04629455 L24.9497941,2.81450227 C24.9497941,1.86852087 24.1802309,1.10187901 23.2291772,1.10187901 C22.2803035,1.10187901 21.5107402,1.86852087 21.5107402,2.81450227 L21.5107402,4.62062578 L18.1254007,1.24828233 C16.4516551,-0.41807337 13.54157,-0.415117555 11.8716395,1.25129847 L0.503322708,12.5753268 C-0.167774236,13.2451506 -0.167774236,14.3289695 0.503322708,14.9977678 C1.17472244,15.6674107 2.26487649,15.6674107 2.93603399,14.9977678 L14.3032608,3.67343793 C14.6735692,3.30649463 15.3262567,3.30649463 15.6946273,3.67235212 L27.0637919,14.9977678 C27.4009149,15.3326194 27.8404404,15.4991706 28.2798448,15.4991706 C28.7201575,15.4991706 29.1604097,15.3324385 29.4965032,14.9977678 C30.1678424,14.3290298 30.1678424,13.2452109 29.4964426,12.5753268 Z" id="Shape"></path>
                            <path d="M15.3425712,6.74487294 C15.0151427,6.41837569 14.4849774,6.41837569 14.1585094,6.74487294 L4.24524121,16.632451 C4.08873109,16.788542 4,17.0016546 4,17.2240513 L4,24.4356816 C4,26.1279448 5.3752719,27.5 7.07136854,27.5 L11.9794347,27.5 L11.9794347,19.9164708 L17.5205653,19.9164708 L17.5205653,27.5 L22.4286915,27.5 C24.1247281,27.5 25.5,26.1279448 25.5,24.4357415 L25.5,17.2240513 C25.5,17.0016546 25.4120494,16.788542 25.2547588,16.632451 L15.3425712,6.74487294 Z" id="Shape"></path>
                        </g>
                    </g>
                </g>
            </g>
        </g>
    </g>
</svg>