<?xml version="1.0" encoding="UTF-8"?>
<svg width="30px" height="30px" viewBox="0 0 30 30" version="1.1" xmlns="http://www.w3.org/2000/svg" xmlns:xlink="http://www.w3.org/1999/xlink">
    <!-- Generator: Sketch 44 (41411) - http://www.bohemiancoding.com/sketch -->
    <title>phone</title>
    <desc>Created with Sketch.</desc>
    <defs></defs>
    <g id="Page-1" stroke="none" stroke-width="1" fill="none" fill-rule="evenodd">
        <g id="06-CONTACT" transform="translate(-848.000000, -950.000000)" fill-rule="nonzero" fill="#3BC0D1">
            <g id="CONTACT" transform="translate(206.000000, 794.000000)">
                <g id="content" transform="translate(642.000000, 58.000000)">
                    <g id="phone" transform="translate(0.000000, 98.000000)">
                        <g id="Shape">
                            <path d="M29.9857006,23.6758065 C30.0492703,24.1631457 29.9008545,24.5868738 29.5410759,24.9469907 L25.3171413,29.1417429 C25.1265879,29.353607 24.8778617,29.5338472 24.5708589,29.6819962 C24.2638562,29.830353 23.9621985,29.9256918 23.6658858,29.9680127 C23.6447132,29.9680127 23.5810397,29.9734651 23.4751248,29.9840583 C23.3694175,29.9945995 23.2317955,30 23.0624147,30 C22.6600314,30 22.008922,29.9311442 21.1090863,29.7933806 C20.2092506,29.6556171 19.1083271,29.3165827 17.8063157,28.7764332 C16.503993,28.2361799 15.0272558,27.4256961 13.3758445,26.3452934 C11.7244333,25.2649426 9.96705527,23.7817904 8.10386611,21.8961485 C6.62178382,20.4342867 5.39377279,19.035984 4.419833,17.7012925 C3.44589321,16.3664971 2.66250686,15.1323891 2.06967394,13.9989164 C1.47678914,12.8654438 1.03216445,11.8379032 0.735747992,10.9162947 C0.439331535,9.99468609 0.238191796,9.20019594 0.132328776,8.53282421 C0.0264657551,7.86545249 -0.0158794531,7.34108899 0.00529315102,6.95973372 C0.0264657551,6.57837844 0.0370520572,6.3665144 0.0370520572,6.3241416 C0.0793972654,6.02753194 0.174673984,5.72562568 0.322882212,5.41842282 C0.471090441,5.11121997 0.651057576,4.86227972 0.862783617,4.67160208 L5.08671813,0.444914484 C5.38313459,0.148304828 5.72189626,0 6.10300313,0 C6.37824698,0 6.62173193,0.079449015 6.83345797,0.238347045 C7.04518401,0.397245075 7.22515115,0.593219312 7.37335938,0.826269756 L10.7715623,7.27752978 C10.9621158,7.61651224 11.0150473,7.98727431 10.9303569,8.38981599 C10.8456664,8.79235766 10.6656993,9.13134013 10.3904555,9.40676338 L8.83426906,10.9639641 C8.79192385,11.0063369 8.75487179,11.0751927 8.72311289,11.1705315 C8.69135398,11.2658703 8.67547453,11.3453193 8.67547453,11.4088786 C8.76016495,11.853793 8.95071838,12.3622667 9.24713484,12.9342996 C9.50120609,13.4427733 9.89289926,14.0624757 10.4222144,14.7934066 C10.9515295,15.5243375 11.7031569,16.3664452 12.6770967,17.3198333 C13.6298639,18.2945118 14.4767681,19.0518219 15.2178092,19.592179 C15.9586947,20.1322246 16.5782009,20.5296255 17.0757571,20.7838623 C17.5733133,21.0380992 17.9544202,21.1917006 18.2190258,21.2445108 L18.6159084,21.3240118 C18.6582536,21.3240118 18.7272202,21.30807 18.8223931,21.2763424 C18.9176699,21.2445108 18.9864808,21.2074866 19.0288779,21.1650618 L20.8390837,19.3218447 C21.2203981,18.9829141 21.6648152,18.8134229 22.1730096,18.8134229 C22.5330477,18.8134229 22.8187222,18.8769302 23.0304482,19.0041005 L23.0621552,19.0041005 L29.1915722,22.6269756 C29.6363526,22.9026066 29.9009582,23.2520784 29.9857006,23.6758065 Z"></path>
                        </g>
                    </g>
                </g>
            </g>
        </g>
    </g>
</svg>